<svg xmlns="http://www.w3.org/2000/svg" width="128" height="128" viewBox="0 0 128 128" fill="none">
  <!-- Background gradient -->
  <rect width="128" height="128" rx="64" fill="url(#gradient)" />
  
  <!-- User silhouette -->
  <path d="M64 64C74.4934 64 83 55.4934 83 45C83 34.5066 74.4934 26 64 26C53.5066 26 45 34.5066 45 45C45 55.4934 53.5066 64 64 64Z" fill="white"/>
  <path d="M64 74C42.9086 74 26 90.9086 26 112C26 117.523 30.4772 122 36 122H92C97.5228 122 102 117.523 102 112C102 90.9086 85.0914 74 64 74Z" fill="white"/>
  
  <!-- Define the gradient -->
  <defs>
    <linearGradient id="gradient" x1="0" y1="0" x2="128" y2="128" gradientUnits="userSpaceOnUse">
      <stop offset="0%" stop-color="#2563EB" />
      <stop offset="100%" stop-color="#4F46E5" />
    </linearGradient>
  </defs>
</svg> 